#!OML:ASF G:\JayActor3\Patient Classification 1\Patient 1\Session 5\male.ASF
:FULLY-SPECIFIED
:DEGREES
669
root -3.64479 14.4344 -5.78256 184.003 -87.1392 -171.713
lowerback 33.5944 0.0191846 0.928966
upperback 6.57028 -0.622529 -1.70028
thorax -9.93378 -0.616729 -2.01147
lowerneck -4.11833 0.732247 1.61925
upperneck -16.6006 0.512319 0.447175
head -4.78373 -0.117078 -0.124811
rclavicle 2.98177e-014 5.725e-014
rhumerus -23.2592 4.56465 -87.5152
rradius 48.9811
rwrist -10.328
rhand -20.2727 -8.10403
rfingers 7.12502
rthumb 6.07653 -37.9969
lclavicle 2.98177e-014 5.725e-014
lhumerus -23.3188 -0.679103 81.4932
lradius 43.4412
lwrist 27.2085
lhand -17.232 13.3875
lfingers 7.12502
lthumb 9.01146 43.175
rfemur -45.3111 0.214839 20.8187
rtibia 91.6833
rfoot -17.9115 0.806665
rtoes -12.7125
lfemur -67.86 2.43603 -22.7696
ltibia 54.4963
lfoot -12.7005 6.66404
ltoes -17.0863
670
root -3.78215 14.4355 -5.74664 185.878 -87.0334 -173.554
lowerback 33.5644 0.00726506 0.863735
upperback 6.57038 -0.663213 -1.72475
thorax -9.9239 -0.634123 -1.98723
lowerneck -4.06833 0.77125 1.63653
upperneck -16.5991 0.552294 0.3234
head -4.79214 -0.0918479 -0.171304
rclavicle 1.51076e-014 2.70347e-014
rhumerus -23.2107 4.51341 -87.5179
rradius 48.9447
rwrist -10.3352
rhand -20.3174 -8.13869
rfingers 7.12502
rthumb 6.03342 -38.0328
lclavicle 1.51076e-014 2.70347e-014
lhumerus -23.2537 -0.683848 81.4538
lradius 43.3796
lwrist 27.2768
lhand -17.302 13.3872
lfingers 7.12502
lthumb 8.94392 43.1776
rfemur -45.3541 -0.0161017 20.4296
rtibia 92.1979
rfoot -16.2484 1.02503
rtoes -12.4843
lfemur -67.8158 2.64339 -23.1569
ltibia 55.2269
lfoot -12.7357 6.09129
ltoes -16.7281
671
root -3.91819 14.4338 -5.71012 188.308 -86.9128 -175.903
lowerback 33.4853 -0.00280382 0.76269
upperback 6.55876 -0.712582 -1.75847
thorax -9.90827 -0.653899 -1.95075
lowerneck -4.03419 0.8138 1.63556
upperneck -16.5606 0.600049 0.215745
head -4.78344 -0.0613396 -0.209369
rclavicle 2.38542e-014 3.45885e-014
rhumerus -23.1399 4.47437 -87.5262
rradius 48.8776
rwrist -10.3299
rhand -20.3353 -8.16685
rfingers 7.12502
rthumb 6.01607 -38.0614
lclavicle 2.38542e-014 3.45885e-014
lhumerus -23.1998 -0.672114 81.4081
lradius 43.3251
lwrist 27.3494
lhand -17.394 13.3892
lfingers 7.12502
lthumb 8.85514 43.1834
rfemur -45.5617 -0.247193 19.9887
rtibia 92.8192
rfoot -14.4103 1.19041
rtoes -12.1371
lfemur -67.8273 2.89142 -23.6066
ltibia 55.954
lfoot -12.8065 5.5401
ltoes -16.4107
672
root -4.05311 14.4307 -5.67331 190.821 -86.7738 -178.319
lowerback 33.3924 -0.0085827 0.644368
upperback 6.53753 -0.761764 -1.79708
thorax -9.89775 -0.672866 -1.91045
lowerneck -4.01513 0.854149 1.61976
upperneck -16.4912 0.648235 0.129861
head -4.76023 -0.0299311 -0.237383
rclavicle -4.77083e-015 2.54444e-014
rhumerus -23.0591 4.44297 -87.5357
rradius 48.7973
rwrist -10.3242
rhand -20.3147 -8.18758
rfingers 7.12502
rthumb 6.03598 -38.0816
lclavicle -4.77083e-015 2.54444e-014
lhumerus -23.1579 -0.664632 81.362
lradius 43.2789
lwrist 27.4431
lhand -17.5176 13.3231
lfingers 7.12502
lthumb 8.73591 43.1224
rfemur -45.8979 -0.465602 19.518
rtibia 93.5337
rfoot -12.4146 1.30406
rtoes -11.6371
lfemur -67.8617 3.17178 -24.0811
ltibia 56.6881
lfoot -12.927 5.08171
ltoes -16.1063
673
root -4.18741 14.4278 -5.63679 192.955 -86.627 -180.371
lowerback 33.3259 -0.0131048 0.527815
upperback 6.51026 -0.808652 -1.83367
thorax -9.90381 -0.690968 -1.86965
lowerneck -4.00819 0.891416 1.59116
upperneck -16.3984 0.696377 0.0728196
head -4.72597 0.00143368 -0.25324
rclavicle 1.03368e-014 1.86858e-014
rhumerus -22.9856 4.41285 -87.5464
rradius 48.7292
rwrist -10.3119
rhand -20.2547 -8.20217
rfingers 7.12502
rthumb 6.0939 -38.0945
lclavicle 1.03368e-014 1.86858e-014
lhumerus -23.131 -0.665528 81.3156
lradius 43.2531
lwrist 27.5491
lhand -17.6357 13.2071
lfingers 7.12502
lthumb 8.62193 43.011
rfemur -46.3106 -0.663686 19.0471
rtibia 94.3193
rfoot -10.2691 1.35645
rtoes -10.9513
lfemur -67.8746 3.47667 -24.5452
ltibia 57.4296
lfoot -13.1173 4.70399
ltoes -15.7878
